<mxfile host="65bd71144e">
    <diagram id="1VLoRbCa__2WQDEqGXH-" name="Page-1">
        <mxGraphModel dx="1345" dy="1879" grid="1" gridSize="10" guides="1" tooltips="1" connect="1" arrows="1" fold="1" page="1" pageScale="1" pageWidth="850" pageHeight="1100" math="0" shadow="0">
            <root>
                <mxCell id="0"/>
                <mxCell id="1" parent="0"/>
                <mxCell id="2" value="ITEMS TO BE INCLUDED:&lt;div&gt;&lt;br&gt;&lt;/div&gt;&lt;div style=&quot;text-align: left;&quot;&gt;Needs Hero section&lt;/div&gt;&lt;div style=&quot;text-align: left;&quot;&gt;Needs About section&lt;/div&gt;&lt;div style=&quot;text-align: left;&quot;&gt;Needs services section&lt;/div&gt;&lt;div style=&quot;text-align: left;&quot;&gt;Needs projects section&lt;/div&gt;&lt;div style=&quot;text-align: left;&quot;&gt;Needs Contact us section&lt;/div&gt;" style="rounded=1;whiteSpace=wrap;html=1;" vertex="1" parent="1">
                    <mxGeometry x="10" y="30" width="570" height="470" as="geometry"/>
                </mxCell>
                <mxCell id="3" value="Hero Section&lt;div&gt;&lt;br&gt;&lt;/div&gt;&lt;div&gt;&lt;ul&gt;&lt;li style=&quot;text-align: left;&quot;&gt;Have a short introduction&lt;/li&gt;&lt;li style=&quot;text-align: left;&quot;&gt;Add Social Media Links&lt;/li&gt;&lt;li style=&quot;text-align: left;&quot;&gt;Add synopsis on years of experience, projects completed,&lt;/li&gt;&lt;li style=&quot;text-align: left;&quot;&gt;Create a button to creator resume&lt;/li&gt;&lt;li style=&quot;text-align: left;&quot;&gt;Have a creator headshot&lt;/li&gt;&lt;li style=&quot;text-align: left;&quot;&gt;Create a fade in for user to reveal face&lt;/li&gt;&lt;/ul&gt;&lt;/div&gt;" style="rounded=0;whiteSpace=wrap;html=1;" vertex="1" parent="1">
                    <mxGeometry x="160" y="720" width="370" height="240" as="geometry"/>
                </mxCell>
                <mxCell id="4" value="Navigation Menu&lt;div&gt;&lt;br&gt;&lt;/div&gt;&lt;div&gt;&lt;ul&gt;&lt;li style=&quot;text-align: left;&quot;&gt;Include links to hero, about, services, projects, and contact section&lt;/li&gt;&lt;li style=&quot;text-align: left;&quot;&gt;Be mobile responsive&lt;/li&gt;&lt;li style=&quot;text-align: left;&quot;&gt;have a glass like background&lt;/li&gt;&lt;li style=&quot;text-align: left;&quot;&gt;Have a drop down animation&lt;/li&gt;&lt;/ul&gt;&lt;/div&gt;" style="rounded=0;whiteSpace=wrap;html=1;" vertex="1" parent="1">
                    <mxGeometry x="990" y="-20" width="340" height="190" as="geometry"/>
                </mxCell>
                <mxCell id="5" value="About Section&lt;div&gt;&lt;ul&gt;&lt;li&gt;Create Education Timeline&amp;nbsp;&lt;/li&gt;&lt;li&gt;Create work experience timeline&lt;/li&gt;&lt;li&gt;Create skills container&lt;/li&gt;&lt;li&gt;Create Contact sub section that has &quot;lets have a chat section&quot; and leads user to contact page&lt;/li&gt;&lt;/ul&gt;&lt;/div&gt;" style="rounded=0;whiteSpace=wrap;html=1;align=left;" vertex="1" parent="1">
                    <mxGeometry x="880" y="511" width="320" height="160" as="geometry"/>
                </mxCell>
                <mxCell id="6" value="General Formatting&lt;div&gt;&lt;ul&gt;&lt;li&gt;Create a preloader for the page that shows creator logo and then reveals page&lt;/li&gt;&lt;li&gt;Create portfolio logo using canva(preferable create a logo using first name initial)&lt;/li&gt;&lt;li&gt;Create a dark background portfolio using colors #4454B9 as lighter background and # 3B41AE as darker contrast&lt;/li&gt;&lt;li&gt;Make footer a lighter color as # 6495ED&lt;/li&gt;&lt;li&gt;For each page besides the home page, Create a picture section heading with a different title for each section&lt;/li&gt;&lt;/ul&gt;&lt;/div&gt;" style="rounded=0;whiteSpace=wrap;html=1;align=left;" vertex="1" parent="1">
                    <mxGeometry x="740" y="210" width="350" height="200" as="geometry"/>
                </mxCell>
                <mxCell id="8" value="Services Section&lt;br&gt;&lt;div&gt;&lt;ul&gt;&lt;li&gt;Create service cards that describe the type of services that the creator does.&lt;/li&gt;&lt;/ul&gt;&lt;/div&gt;" style="rounded=0;whiteSpace=wrap;html=1;align=left;" vertex="1" parent="1">
                    <mxGeometry x="1370" y="330" width="320" height="160" as="geometry"/>
                </mxCell>
                <mxCell id="9" value="Project Section&lt;br&gt;&lt;div&gt;&lt;ul&gt;&lt;li&gt;Create container that holds all projects that the creator has done as of right now.&lt;/li&gt;&lt;/ul&gt;&lt;/div&gt;" style="rounded=0;whiteSpace=wrap;html=1;align=left;" vertex="1" parent="1">
                    <mxGeometry x="1320" y="560" width="320" height="160" as="geometry"/>
                </mxCell>
                <mxCell id="10" value="Contact Sectoin" style="rounded=0;whiteSpace=wrap;html=1;align=left;" vertex="1" parent="1">
                    <mxGeometry x="910" y="820" width="360" height="210" as="geometry"/>
                </mxCell>
            </root>
        </mxGraphModel>
    </diagram>
</mxfile>